<?xml version="1.0"?>
<svg xmlns="http://www.w3.org/2000/svg" id="Layer_1" enable-background="new 0 0 512.002 512.002" height="512px" viewBox="0 0 512.002 512.002" width="512px" class=""><g transform="matrix(0.94148 0 0 0.94148 14.9811 14.9811)"><path d="m502.001 432.002h-10.228c3.176-28.135-15.595-39.933-28.187-44.63-9.448-3.524-19.341-4.175-28.777-2.114-12.972-31.102-36.436-57.547-65.443-74.035 14.641-11.081 29.742-26.325 40.236-42.958 11.032-17.487 15.499-34.555 13.041-49.61 18.466-13.673 39.549-38.577 33.956-62.347-2.938-12.486-13.257-22.84-25.677-25.765-11.093-2.613-22.494.403-30.744 8.072-8.248-7.67-19.651-10.685-30.743-8.072-12.42 2.925-22.739 13.278-25.677 25.764-1.951 8.295-.682 17.442 3.644 26.885-3.383 2.036-6.559 4.485-9.438 7.356-.907.903-2.106 1.425-3.196 1.431-1.184-.006-2.382-.526-3.287-1.43-.001 0-.001-.001-.002-.001-12.162-12.124-29.479-16.993-46.309-13.029-18.25 4.297-33.413 19.519-37.731 37.876-3.724 15.827.564 34.109 12.4 52.87 5.513 8.738 12.301 17.092 19.622 24.663-20.597 2.3-40.539 8.864-58.461 19.196v-203.052c22.322-4.119 39.953-21.751 44.072-44.072h22.648c4.128 11.639 15.243 20 28.28 20h140c16.542 0 30-13.458 30-30s-13.458-29.999-30-29.999h-140c-13.036 0-24.151 8.36-28.279 19.999h-22.649c-4.718-25.567-27.161-45-54.072-45h-110.004c-5.523 0-10 4.478-10 10s4.477 10 10 10h20.001v25h-20.001c-5.523 0-10 4.478-10 10s4.477 10 10 10h20.001v25h-20.001c-5.523 0-10 4.478-10 10s4.477 10 10 10h20.001v10.001c0 5.522 4.477 10 10 10s10-4.478 10-10v-100.001h20.001v292.108c-1.659-.063-3.323-.105-4.998-.105-5.074 0-10.079.302-15.003.871v-102.873c0-5.522-4.477-10-10-10s-10 4.478-10 10v106.794c-51.643 14.456-90.401 60.074-94.615 115.207h-16.381c-5.523 0-10 4.478-10 10 0 38.598 31.511 70 70.244 70h371.511c38.732 0 70.244-31.402 70.244-70 .001-5.523-4.477-10-9.999-10zm-45.406-25.892c9.593 3.578 17.826 9.314 15.005 25.892h-59.2c2.33-8.951 7.69-16.965 15.131-22.132 8.821-6.123 19.144-7.458 29.064-3.76zm-151.293 25.892c4.281-3.394 5.053-9.605 1.704-13.941-3.376-4.371-9.656-5.18-14.026-1.804l-8.407 6.492c-1.405-9.422-3.828-18.514-7.147-27.167 5.883-2.355 12.182-3.58 18.575-3.58 12.055 0 23.421 4.261 32.372 11.9-7.601 7.58-12.741 17.387-14.726 28.1zm40.302-39.402c-13.074-13.177-30.747-20.598-49.604-20.598-9.371 0-18.597 1.887-27.163 5.495-3.385-5.898-7.224-11.502-11.46-16.775 12.026-5.722 25.179-8.721 38.623-8.721 30.327 0 57.197 15.079 73.511 38.132-8.081-1.315-16.266-.474-23.907 2.467zm1.198 21.852c7.507-5.21 16.283-6.349 24.719-3.202 5.574 2.079 10.595 5.038 12.36 11.316.172.78.334 1.564.486 2.351.277 2.041.251 4.387-.13 7.085h-50.006c2.173-7.1 6.592-13.398 12.571-17.55zm69.663-21.231c-.112.077-.228.144-.34.221-6.07 4.214-11.178 9.529-15.176 15.582-14.043-44.593-55.779-77.022-104.949-77.022-18.586 0-36.724 4.669-52.917 13.563-5.322-4.811-11.04-9.19-17.103-13.078 20.812-13.286 45.18-20.486 70.021-20.486 1.717 0 3.46.041 5.256.116 11.695 8.687 23.008 14.653 31.34 16.464.699.152 1.412.229 2.124.229s1.425-.076 2.124-.229c3.789-.824 8.2-2.519 12.977-4.925 29.712 13.605 53.993 39.009 66.643 69.565zm-53.238-232.333c1.223-5.196 5.66-9.669 10.793-10.878 4.702-1.104 9.525.236 12.896 3.595 3.557 3.547 8.25 5.514 13.31 5.537 4.966-.023 9.659-1.99 13.214-5.535 3.372-3.359 8.193-4.702 12.899-3.597 5.132 1.209 9.569 5.682 10.792 10.878 2.522 10.721-8.578 26.936-22.175 38.369-7.11-10.708-18.17-18.791-30.684-21.738-5.98-1.409-12.017-1.682-17.867-.931-2.553-4.936-4.373-10.619-3.178-15.7zm-96.32 59.087c2.582-10.976 11.978-20.429 22.847-22.989 2.313-.544 4.64-.811 6.939-.811 7.699 0 15.099 2.988 20.666 8.538 4.669 4.655 10.818 7.235 17.408 7.266 6.496-.03 12.646-2.61 17.315-7.266 3.437-3.427 7.577-5.863 12.05-7.235.225-.062.448-.133.67-.211 4.747-1.333 9.849-1.466 14.885-.281 10.869 2.561 20.264 12.014 22.846 22.989 3.117 13.251-3.634 27.771-9.847 37.618-12.595 19.964-32.763 37.24-47.485 45.872-.556.255-1.088.559-1.59.912-3.341 1.867-6.362 3.254-8.891 4.077-5.76-1.875-14.059-6.661-22.933-13.445-.474-.446-.99-.847-1.545-1.195-11.881-9.326-24.58-22.101-33.489-36.222-6.212-9.847-12.963-24.366-9.846-37.617zm49.094-174.974h140c5.514 0 10 4.486 10 10s-4.486 9.999-10 9.999h-140c-5.514 0-10-4.486-10-10s4.486-9.999 10-9.999zm-70.001 9.999c0 15.824-10.56 29.223-25 33.537v-67.074c14.44 4.314 25 17.713 25 33.537zm-65.002-35h20.002v300.036c-6.443-2.385-13.127-4.268-20.001-5.612v-294.424zm-24.997 312.003c57.283 0 104.471 44.015 109.541 99.999h-20.099c-4.991-44.937-43.195-79.999-89.441-79.999s-84.45 35.063-89.441 79.999h-20.1c5.069-55.984 52.257-99.999 109.54-99.999zm48.994 99.999c-4.646-22.794-24.847-39.999-48.994-39.999s-44.348 17.205-48.994 39.999h-20.28c4.869-33.876 34.072-59.999 69.274-59.999s64.406 26.123 69.274 59.999zm-20.715 0h-56.559c4.128-11.638 15.243-19.999 28.28-19.999s24.151 8.361 28.279 19.999zm257.477 60h-371.512c-24.264 0-44.566-17.206-49.234-40h469.98c-4.669 22.794-24.971 40-49.234 40z" data-original="#000000" class="active-path" data-old_color="#000000" fill="#FFFFFF"/><path d="m130.997 175.004c5.523 0 10-4.478 10-10v-.007c0-5.522-4.477-9.996-10-9.996s-10 4.48-10 10.003 4.477 10 10 10z" data-original="#000000" class="active-path" data-old_color="#000000" fill="#FFFFFF"/></g> </svg>
